<svg xmlns="http://www.w3.org/2000/svg" width="783.282" height="726.932" viewBox="0 0 783.282 726.932">
  <g id="Group_119" data-name="Group 119" transform="translate(0 0)">
    <g id="Group_117" data-name="Group 117" transform="translate(0)">
      <g id="Group_99" data-name="Group 99" transform="translate(0 726.933) rotate(-90)">
        <path id="Path_3" data-name="Path 3" d="M363.45,585.275l-.117-.118.042.1-.117-.189c-74.249-80.866-144.5-107.558-203.48-137.958a220.545,220.545,0,0,0,7.236-62.534C163.7,237.628,59.442,208.64,0,.189L.042.039,2.626,4.2.042.039.058,0C141.4,132.176,232.743,112.646,303.574,221.071c71.923,110.185-6.144,192.3,59.709,363.935Z" transform="translate(363.483 0)" fill="#c1cd90"/>
        <path id="Path_4" data-name="Path 4" d="M108.914,354.068c65.8-110.934.592-175.291,52.848-354.012l-.008,5.466.008-5.466L161.779,0c52.281,178.761-12.947,243.118,52.856,354.068,28,47.169,64.57,70.927,106.938,92.768-27.6,103.464-125.98,160.043-160.92,335.815v.355l-.033-.174-.033.126v-.252C125.7,607.163,27.7,550.916,0,447.846,43.219,425.72,80.485,401.962,108.914,354.068Z" transform="translate(201.688 0.276)" fill="#a8c4c5"/>
        <path id="Path_5" data-name="Path 5" d="M52.856,354.154C-12.947,243.2,52.281,178.848,0,.087L.017,0c59.442,208.451,163.7,237.439,167.014,384.388a220.545,220.545,0,0,1-7.236,62.534C117.426,425.082,80.852,401.323,52.856,354.154Z" transform="translate(363.466 0.189)" fill="#9abfa2"/>
        <path id="Path_6" data-name="Path 6" d="M360.815,4.181l2.5-4.023C303.857,208.3,197.694,238.322,194.376,385.193a220.4,220.4,0,0,0,7.311,62.913C143.121,478.1,73.607,505.087.183,585.054l-.117.189.042-.1L0,585.259l.158-.268C66.02,413.36-12.055,331.24,59.868,221.056,130.7,112.63,222.03,132.16,363.358,0l-.042.158Z" transform="translate(0 0.016)" fill="#c2cbd4"/>
        <path id="Path_7" data-name="Path 7" d="M169,.134,169.088,0l.05.189v.1C116.882,179.014,182.093,243.37,116.29,354.3,87.861,402.2,50.594,425.957,7.376,448.082A220.4,220.4,0,0,1,.064,385.169C3.382,238.3,109.545,208.277,169,.134Z" transform="translate(194.312 0.04)" fill="#9eb8c8"/>
      </g>
    </g>
  </g>
</svg>
