<svg xmlns="http://www.w3.org/2000/svg" width="575.367" height="99.303" viewBox="0 0 575.367 99.303">
  <g id="Group_92" data-name="Group 92" transform="translate(-17.776 -16.636)">
    <g id="Group_89" data-name="Group 89">
      <path id="Path_3" data-name="Path 3" d="M104.97,41.739l-.014.015,0-.013-.014.024C96.041,52.017,87.615,55.4,80.54,59.255a29.473,29.473,0,0,1,.868,7.928c-.4,18.63-12.9,22.305-20.033,48.732l.005.019.31-.527-.31.527,0,.005c16.954-16.757,27.91-14.281,36.406-28.027,8.627-13.969-.737-24.38,7.162-46.139Z" fill="#c1cd90"/>
      <path id="Path_4" data-name="Path 4" d="M55.032,71.016c7.893,14.064.071,22.223,6.339,44.881v0l0,.007c6.271-22.663-1.553-30.822,6.34-44.888,3.358-5.98,7.745-8.992,12.827-11.761-3.311-13.117-15.111-20.29-19.3-42.574v-.045l0,.022,0-.016v.032C57.045,38.929,45.291,46.06,41.968,59.127,47.152,61.932,51.622,64.944,55.032,71.016Z" fill="#a8c4c5"/>
      <path id="Path_5" data-name="Path 5" d="M67.713,71.016c-7.893,14.066-.069,22.225-6.34,44.888l0,.011c7.13-26.427,19.635-30.1,20.033-48.732a29.473,29.473,0,0,0-.868-7.928C75.458,62.024,71.071,65.036,67.713,71.016Z" fill="#9abfa2"/>
      <path id="Path_6" data-name="Path 6" d="M61.055,115.407l.3.51C54.223,89.529,41.489,85.723,41.091,67.1a29.453,29.453,0,0,1,.877-7.976C34.943,55.325,26.6,51.9,17.8,41.765l-.014-.024,0,.013-.013-.015.019.034c7.9,21.759-1.465,32.17,7.162,46.139,8.5,13.746,19.451,11.27,36.4,28.025l-.005-.02Z" fill="#c2cbd4"/>
      <path id="Path_7" data-name="Path 7" d="M61.355,115.917l.01.017.006-.024V115.9C55.1,93.239,62.925,85.08,55.032,71.016c-3.41-6.072-7.88-9.084-13.064-11.889a29.453,29.453,0,0,0-.877,7.976C41.489,85.723,54.223,89.529,61.355,115.917Z" fill="#9eb8c8"/>
    </g>
    <g id="Group_91" data-name="Group 91">
      <path id="Path_8" data-name="Path 8" d="M288.93,49.15h5.521l4.512,26.643h.1l4.512-26.643h5.761l4.609,26.786h.1L318.5,49.15h5.424l-6.816,34.275h-6.337L306.356,57.6h-.1l-4.369,25.826h-6.336Z" fill="#c1cd90"/>
      <path id="Path_9" data-name="Path 9" d="M327.043,49.15h18.529v4.609H332.515v9.505H344.8v4.608H332.515V78.817h13.442v4.608H327.043Z" fill="#c1cd90"/>
      <path id="Path_10" data-name="Path 10" d="M349.506,49.15h5.472V78.817h13.249v4.608H349.506Z" fill="#c1cd90"/>
      <path id="Path_11" data-name="Path 11" d="M370.817,49.15h5.473V78.817h13.249v4.608H370.817Z" fill="#c1cd90"/>
      <path id="Path_12" data-name="Path 12" d="M392.753,49.15h6.672l9.937,25.538h.1V49.15h5.185V83.425H407.97l-9.937-26.21h-.1v26.21h-5.184Z" fill="#c1cd90"/>
      <path id="Path_13" data-name="Path 13" d="M420.3,49.15h18.53v4.609H425.777v9.505h12.289v4.608H425.777V78.817h13.44v4.608H420.3Z" fill="#c1cd90"/>
      <path id="Path_14" data-name="Path 14" d="M447.615,72.816v.864c0,4.177,1.825,6.289,5.617,6.289a4.859,4.859,0,0,0,5.184-4.993c0-3.6-1.824-5.184-4.9-6.1l-3.744-1.295c-4.993-1.92-7.152-4.512-7.152-9.409,0-6.24,4.223-9.7,10.655-9.7,8.786,0,9.7,5.473,9.7,9.025v.768H457.5v-.72c0-3.12-1.392-4.944-4.8-4.944-2.352,0-4.608,1.3-4.608,4.944,0,2.929,1.487,4.416,5.136,5.808l3.7,1.345c4.849,1.728,6.961,4.368,6.961,9.072,0,7.3-4.416,10.321-11.329,10.321-8.5,0-10.417-5.664-10.417-10.465v-.816Z" fill="#c1cd90"/>
      <path id="Path_15" data-name="Path 15" d="M472.528,72.816v.864c0,4.177,1.824,6.289,5.616,6.289a4.859,4.859,0,0,0,5.184-4.993c0-3.6-1.824-5.184-4.9-6.1l-3.744-1.295c-4.993-1.92-7.153-4.512-7.153-9.409,0-6.24,4.224-9.7,10.657-9.7,8.785,0,9.7,5.473,9.7,9.025v.768h-5.473v-.72c0-3.12-1.391-4.944-4.8-4.944-2.352,0-4.608,1.3-4.608,4.944,0,2.929,1.487,4.416,5.136,5.808l3.7,1.345c4.849,1.728,6.961,4.368,6.961,9.072,0,7.3-4.416,10.321-11.329,10.321-8.5,0-10.417-5.664-10.417-10.465v-.816Z" fill="#c1cd90"/>
      <g id="Group_90" data-name="Group 90">
        <path id="Path_16" data-name="Path 16" d="M126.846,62.865h1.519v4.4h.08a6.6,6.6,0,0,1,1.141-2.06,7.592,7.592,0,0,1,3.859-2.5,8.859,8.859,0,0,1,2.361-.32,9.335,9.335,0,0,1,3.059.44,5.989,5.989,0,0,1,2.06,1.16,5.593,5.593,0,0,1,1.261,1.621,7.526,7.526,0,0,1,.66,1.819,10.811,10.811,0,0,1,.24,1.78q.039.861.04,1.5v12.72h-1.52v-13q0-.759-.12-1.92a5.87,5.87,0,0,0-.7-2.22,5.1,5.1,0,0,0-1.76-1.82,6,6,0,0,0-3.26-.76,7.253,7.253,0,0,0-3.12.64,6.75,6.75,0,0,0-2.32,1.781,7.841,7.841,0,0,0-1.461,2.719,11.434,11.434,0,0,0-.5,3.46v11.12h-1.519Z" fill="#494d4d"/>
        <path id="Path_17" data-name="Path 17" d="M146.645,73.145a13.534,13.534,0,0,1,.62-4.14,10.364,10.364,0,0,1,1.821-3.419,8.634,8.634,0,0,1,2.96-2.341,9.917,9.917,0,0,1,8.079,0,8.656,8.656,0,0,1,2.961,2.341A10.4,10.4,0,0,1,164.9,69a13.5,13.5,0,0,1,.621,4.14,13.689,13.689,0,0,1-.621,4.16,10.13,10.13,0,0,1-1.819,3.42,8.76,8.76,0,0,1-2.961,2.321,9.917,9.917,0,0,1-8.079,0,8.737,8.737,0,0,1-2.96-2.321,10.1,10.1,0,0,1-1.821-3.42A13.72,13.72,0,0,1,146.645,73.145Zm1.52,0a12.053,12.053,0,0,0,.52,3.54,9.6,9.6,0,0,0,1.52,3.021,7.386,7.386,0,0,0,2.48,2.1,7.793,7.793,0,0,0,6.8,0,7.4,7.4,0,0,0,2.48-2.1,9.644,9.644,0,0,0,1.52-3.021,12.309,12.309,0,0,0,0-7.08,9.634,9.634,0,0,0-1.52-3.019,7.4,7.4,0,0,0-2.48-2.1,7.8,7.8,0,0,0-6.8,0,7.392,7.392,0,0,0-2.48,2.1,9.592,9.592,0,0,0-1.52,3.019A12.063,12.063,0,0,0,148.165,73.145Z" fill="#494d4d"/>
        <path id="Path_18" data-name="Path 18" d="M170.6,67.425h.12a4.988,4.988,0,0,1,1.02-1.879,7.157,7.157,0,0,1,1.8-1.521,8.873,8.873,0,0,1,2.36-.979,15.59,15.59,0,0,1,3.28-.183l.013,1.322a15.8,15.8,0,0,0-3.333.32,6.654,6.654,0,0,0-2.94,1.76,14.289,14.289,0,0,0-.98,1.16,5.606,5.606,0,0,0-.7,1.241,7.78,7.78,0,0,0-.44,1.519,13.173,13.173,0,0,0-.2,2v11.24h-1.52V62.865h1.52Z" fill="#494d4d"/>
        <path id="Path_19" data-name="Path 19" d="M188.8,64.185h-4.48V78.546A5.535,5.535,0,0,0,184.6,80.5a2.234,2.234,0,0,0,.86,1.1,3.04,3.04,0,0,0,1.4.46,14.181,14.181,0,0,0,1.9.04v1.32a14.4,14.4,0,0,1-2.259-.019,4.538,4.538,0,0,1-1.94-.6,3.511,3.511,0,0,1-1.34-1.5,5.665,5.665,0,0,1-.421-2.759V64.185h-3.8v-1.32h3.8v-6.4h1.52v6.4h4.48Z" fill="#494d4d"/>
        <path id="Path_20" data-name="Path 20" d="M193.124,54.865v12.4h.08a6.575,6.575,0,0,1,1.14-2.06,7.589,7.589,0,0,1,3.86-2.5,8.847,8.847,0,0,1,2.36-.32,9.346,9.346,0,0,1,3.06.44,6.008,6.008,0,0,1,2.06,1.16,5.607,5.607,0,0,1,1.26,1.621,7.527,7.527,0,0,1,.66,1.819,10.812,10.812,0,0,1,.24,1.78q.039.861.04,1.5v12.72h-1.52v-13q0-.759-.12-1.92a5.853,5.853,0,0,0-.7-2.22,5.1,5.1,0,0,0-1.76-1.82,6,6,0,0,0-3.26-.76,7.253,7.253,0,0,0-3.12.64,6.75,6.75,0,0,0-2.32,1.781,7.823,7.823,0,0,0-1.46,2.719,11.4,11.4,0,0,0-.5,3.46v11.12H191.6V54.865Z" fill="#494d4d"/>
        <path id="Path_21" data-name="Path 21" d="M217.484,81.666h.08l5.6-18.8h2.04l5.64,18.8h.08l5.76-18.8h1.68l-6.6,20.56h-1.881l-5.639-18.64h-.08l-5.68,18.64h-1.92l-6.52-20.56h1.64Z" fill="#494d4d"/>
        <path id="Path_22" data-name="Path 22" d="M241.084,73.345v.241a12.145,12.145,0,0,0,.481,3.439,8.8,8.8,0,0,0,1.424,2.881,6.776,6.776,0,0,0,2.366,1.96,7.251,7.251,0,0,0,3.309.72,7.05,7.05,0,0,0,4.893-1.621,8.481,8.481,0,0,0,2.487-4.5h1.52a9.2,9.2,0,0,1-2.94,5.52,8.924,8.924,0,0,1-5.98,1.921,9.089,9.089,0,0,1-3.98-.82,8.085,8.085,0,0,1-2.84-2.241,9.495,9.495,0,0,1-1.7-3.36,14.989,14.989,0,0,1-.56-4.18,14.628,14.628,0,0,1,.58-4.139,10.378,10.378,0,0,1,1.74-3.481,8.615,8.615,0,0,1,2.9-2.4,8.81,8.81,0,0,1,4.1-.9,8.7,8.7,0,0,1,3.82.8,8.018,8.018,0,0,1,2.78,2.18,9.711,9.711,0,0,1,1.7,3.2,12.8,12.8,0,0,1,.58,3.9c0,.134-.007.287-.02.46s-.02.314-.02.42Zm15.12-1.32a12.341,12.341,0,0,0-.561-3.18,7.9,7.9,0,0,0-1.424-2.64,7.1,7.1,0,0,0-2.286-1.82,6.712,6.712,0,0,0-3.069-.68,7.192,7.192,0,0,0-3.248.7,7.327,7.327,0,0,0-2.366,1.84,8.188,8.188,0,0,0-1.484,2.66,12.441,12.441,0,0,0-.642,3.12Z" fill="#494d4d"/>
        <path id="Path_23" data-name="Path 23" d="M262,76.586a6.3,6.3,0,0,0,.64,2.54,6.051,6.051,0,0,0,3.56,3.059,8.132,8.132,0,0,0,2.6.4,13.892,13.892,0,0,0,2.141-.18,7.458,7.458,0,0,0,2.12-.66,4.419,4.419,0,0,0,1.62-1.34,3.559,3.559,0,0,0,.639-2.181,3.213,3.213,0,0,0-1.039-2.6,7.294,7.294,0,0,0-2.62-1.361,26.6,26.6,0,0,0-3.4-.78,17.717,17.717,0,0,1-3.4-.9,6.923,6.923,0,0,1-2.619-1.7,5.316,5.316,0,0,1-.361-5.759,5.06,5.06,0,0,1,1.741-1.621,7.9,7.9,0,0,1,2.38-.859,13.573,13.573,0,0,1,2.64-.261,12.021,12.021,0,0,1,3,.36,6.5,6.5,0,0,1,2.42,1.16,5.531,5.531,0,0,1,1.6,2.04,7.053,7.053,0,0,1,.58,3h-1.52a5.714,5.714,0,0,0-.46-2.4,4.193,4.193,0,0,0-1.28-1.621,5.58,5.58,0,0,0-1.94-.92,9.25,9.25,0,0,0-2.4-.3,11.324,11.324,0,0,0-2.1.2,6.056,6.056,0,0,0-1.9.681,4.254,4.254,0,0,0-1.38,1.239,3.1,3.1,0,0,0-.54,1.841,3.142,3.142,0,0,0,.6,2,4.3,4.3,0,0,0,1.581,1.219,10.9,10.9,0,0,0,2.2.741q1.219.279,2.46.559,1.52.281,2.86.66a8.091,8.091,0,0,1,2.32,1.04,4.722,4.722,0,0,1,1.54,1.7,5.534,5.534,0,0,1,.559,2.639,4.691,4.691,0,0,1-.759,2.76,5.847,5.847,0,0,1-1.92,1.74,8.142,8.142,0,0,1-2.58.92,15.372,15.372,0,0,1-2.781.261,11.055,11.055,0,0,1-3.259-.461,7.389,7.389,0,0,1-2.62-1.4,6.656,6.656,0,0,1-1.76-2.3,7.749,7.749,0,0,1-.68-3.16Z" fill="#494d4d"/>
        <path id="Path_24" data-name="Path 24" d="M288.083,64.185H283.6V78.546a5.538,5.538,0,0,0,.28,1.959,2.234,2.234,0,0,0,.86,1.1,3.04,3.04,0,0,0,1.4.46,14.173,14.173,0,0,0,1.9.04v1.32a14.408,14.408,0,0,1-2.26-.019,4.539,4.539,0,0,1-1.94-.6,3.511,3.511,0,0,1-1.34-1.5,5.654,5.654,0,0,1-.42-2.759V64.185h-3.8v-1.32h3.8v-6.4h1.52v6.4h4.48Z" fill="#494d4d"/>
        <path id="Path_25" data-name="Path 25" d="M508.1,69.225a5.959,5.959,0,0,0-.7-2.4,5.35,5.35,0,0,0-1.5-1.719,6.779,6.779,0,0,0-2.14-1.04,9.186,9.186,0,0,0-2.62-.361,7.185,7.185,0,0,0-3.4.78,7.488,7.488,0,0,0-2.48,2.081,9.406,9.406,0,0,0-1.52,2.959,11.366,11.366,0,0,0-.52,3.42,14.557,14.557,0,0,0,.48,3.84,8.7,8.7,0,0,0,1.48,3.06,6.89,6.89,0,0,0,2.48,2.021,7.886,7.886,0,0,0,3.48.72,7.205,7.205,0,0,0,2.66-.481,7.132,7.132,0,0,0,2.16-1.319,6.853,6.853,0,0,0,1.54-2.021,8.217,8.217,0,0,0,.8-2.58h1.52a9.653,9.653,0,0,1-1,3.28,8.026,8.026,0,0,1-1.92,2.42,8.319,8.319,0,0,1-2.64,1.5,9.33,9.33,0,0,1-3.12.521,9.439,9.439,0,0,1-4.3-.9,8.216,8.216,0,0,1-2.92-2.419,10.278,10.278,0,0,1-1.68-3.5,15.678,15.678,0,0,1-.54-4.141,13.178,13.178,0,0,1,.62-4.08,9.995,9.995,0,0,1,1.82-3.36,8.65,8.65,0,0,1,2.96-2.28,9.289,9.289,0,0,1,4.04-.84,11.317,11.317,0,0,1,3.14.42,8.132,8.132,0,0,1,2.6,1.261,6.576,6.576,0,0,1,1.86,2.139,7.633,7.633,0,0,1,.88,3.02Z" fill="#494d4d"/>
        <path id="Path_26" data-name="Path 26" d="M513.943,73.345v.241a12.146,12.146,0,0,0,.481,3.439,8.777,8.777,0,0,0,1.424,2.881,6.776,6.776,0,0,0,2.366,1.96,7.248,7.248,0,0,0,3.309.72,7.052,7.052,0,0,0,4.893-1.621,8.487,8.487,0,0,0,2.487-4.5h1.52a9.2,9.2,0,0,1-2.94,5.52,8.924,8.924,0,0,1-5.98,1.921,9.086,9.086,0,0,1-3.98-.82,8.085,8.085,0,0,1-2.84-2.241,9.5,9.5,0,0,1-1.7-3.36,14.99,14.99,0,0,1-.56-4.18,14.592,14.592,0,0,1,.58-4.139,10.394,10.394,0,0,1,1.739-3.481,8.628,8.628,0,0,1,2.9-2.4,8.808,8.808,0,0,1,4.1-.9,8.7,8.7,0,0,1,3.821.8,8.018,8.018,0,0,1,2.78,2.18,9.731,9.731,0,0,1,1.7,3.2,12.8,12.8,0,0,1,.58,3.9c0,.134-.008.287-.02.46s-.02.314-.02.42Zm15.12-1.32a12.3,12.3,0,0,0-.562-3.18,7.86,7.86,0,0,0-1.424-2.64,7.081,7.081,0,0,0-2.286-1.82,6.7,6.7,0,0,0-3.067-.68,7.194,7.194,0,0,0-3.249.7,7.317,7.317,0,0,0-2.366,1.84,8.207,8.207,0,0,0-1.485,2.66,12.529,12.529,0,0,0-.641,3.12Z" fill="#494d4d"/>
        <path id="Path_27" data-name="Path 27" d="M534.143,62.865h1.519v4.4h.08a6.6,6.6,0,0,1,1.141-2.06,7.592,7.592,0,0,1,3.859-2.5,8.859,8.859,0,0,1,2.361-.32,9.339,9.339,0,0,1,3.059.44,6.013,6.013,0,0,1,2.061,1.16,5.606,5.606,0,0,1,1.26,1.621,7.527,7.527,0,0,1,.66,1.819,10.811,10.811,0,0,1,.24,1.78c.025.574.039,1.074.039,1.5v12.72H548.9v-13q0-.759-.121-1.92a5.834,5.834,0,0,0-.7-2.22,5.089,5.089,0,0,0-1.76-1.82,5.994,5.994,0,0,0-3.259-.76,7.253,7.253,0,0,0-3.12.64,6.753,6.753,0,0,0-2.321,1.781,7.839,7.839,0,0,0-1.46,2.719,11.4,11.4,0,0,0-.5,3.46v11.12h-1.519Z" fill="#494d4d"/>
        <path id="Path_28" data-name="Path 28" d="M562.462,64.185h-4.479V78.546a5.54,5.54,0,0,0,.279,1.959,2.239,2.239,0,0,0,.86,1.1,3.048,3.048,0,0,0,1.4.46,14.157,14.157,0,0,0,1.9.04v1.32a14.41,14.41,0,0,1-2.26-.019,4.543,4.543,0,0,1-1.94-.6,3.511,3.511,0,0,1-1.34-1.5,5.666,5.666,0,0,1-.42-2.759V64.185h-3.8v-1.32h3.8v-6.4h1.521v6.4h4.479Z" fill="#494d4d"/>
        <path id="Path_29" data-name="Path 29" d="M566.781,67.425h.121a4.988,4.988,0,0,1,1.02-1.879,7.157,7.157,0,0,1,1.8-1.521,8.88,8.88,0,0,1,2.359-.979,9.552,9.552,0,0,1,2.7-.3v1.52a7.221,7.221,0,0,0-2.74.24,6.651,6.651,0,0,0-2.939,1.76,14.531,14.531,0,0,0-.981,1.16,5.642,5.642,0,0,0-.7,1.241,7.78,7.78,0,0,0-.44,1.519,13.288,13.288,0,0,0-.2,2v11.24h-1.519V62.865h1.519Z" fill="#494d4d"/>
        <path id="Path_30" data-name="Path 30" d="M576.462,73.345v.241a12.111,12.111,0,0,0,.482,3.439,8.776,8.776,0,0,0,1.423,2.881,6.77,6.77,0,0,0,2.367,1.96,7.244,7.244,0,0,0,3.308.72,7.052,7.052,0,0,0,4.894-1.621,8.48,8.48,0,0,0,2.486-4.5h1.521A9.2,9.2,0,0,1,590,81.985a8.923,8.923,0,0,1-5.979,1.921,9.09,9.09,0,0,1-3.981-.82,8.085,8.085,0,0,1-2.84-2.241,9.511,9.511,0,0,1-1.7-3.36,14.988,14.988,0,0,1-.559-4.18,14.592,14.592,0,0,1,.58-4.139,10.357,10.357,0,0,1,1.739-3.481,8.615,8.615,0,0,1,2.9-2.4,8.813,8.813,0,0,1,4.1-.9,8.7,8.7,0,0,1,3.82.8,8.008,8.008,0,0,1,2.78,2.18,9.713,9.713,0,0,1,1.7,3.2,12.83,12.83,0,0,1,.58,3.9c0,.134-.008.287-.021.46s-.019.314-.019.42Zm15.12-1.32a12.255,12.255,0,0,0-.561-3.18,7.877,7.877,0,0,0-1.424-2.64,7.091,7.091,0,0,0-2.286-1.82,6.7,6.7,0,0,0-3.068-.68,7.2,7.2,0,0,0-3.249.7,7.337,7.337,0,0,0-2.366,1.84,8.208,8.208,0,0,0-1.484,2.66,12.484,12.484,0,0,0-.642,3.12Z" fill="#494d4d"/>
      </g>
    </g>
  </g>
</svg>
