<svg xmlns="http://www.w3.org/2000/svg" width="783.282" height="726.932" viewBox="0 0 783.282 726.932">
  <g id="Group_132" data-name="Group 132" transform="translate(0 0)">
    <g id="Group_117" data-name="Group 117" transform="translate(0 0)">
      <g id="Group_99" data-name="Group 99" transform="translate(0 726.933) rotate(-90)">
        <path id="Path_3" data-name="Path 3" d="M363.45,0l-.117.118.042-.1-.117.189c-74.249,80.866-144.5,107.558-203.48,137.958a220.545,220.545,0,0,1,7.236,62.534C163.7,347.647,59.442,376.635,0,585.086l.042.15,2.584-4.157L.042,585.235l.017.039C141.4,453.1,232.743,472.629,303.574,364.2,375.5,254.019,297.429,171.9,363.283.268Z" transform="translate(363.483 198.007)" fill="#c1cd90"/>
        <path id="Path_4" data-name="Path 4" d="M108.914,428.939c65.8,110.934.592,175.291,52.848,354.012l-.008-5.466.008,5.466.017.055c52.281-178.761-12.947-243.118,52.856-354.068,28-47.169,64.57-70.927,106.938-92.768C293.969,232.706,195.593,176.127,160.653.355V0l-.033.174-.033-.126V.3C125.7,175.843,27.7,232.091,0,335.161,43.219,357.286,80.485,381.044,108.914,428.939Z" transform="translate(201.688 0)" fill="#a8c4c5"/>
        <path id="Path_5" data-name="Path 5" d="M52.856,92.768C-12.947,203.718,52.281,268.075,0,446.836l.017.087c59.442-208.451,163.7-237.439,167.014-384.388A220.545,220.545,0,0,0,159.794,0C117.426,21.841,80.852,45.6,52.856,92.768Z" transform="translate(363.466 336.17)" fill="#9abfa2"/>
        <path id="Path_6" data-name="Path 6" d="M360.815,581.078l2.5,4.023c-59.459-208.143-165.622-238.164-168.94-385.035a220.4,220.4,0,0,1,7.311-62.913C143.121,107.164,73.607,80.172.183.205L.067.016l.042.1L0,0,.158.268C66.02,171.9-12.055,254.019,59.868,364.2,130.7,472.629,222.03,453.1,363.358,585.259l-.042-.158Z" transform="translate(0 198.007)" fill="#c2cbd4"/>
        <path id="Path_7" data-name="Path 7" d="M169,447.948l.083.134.05-.189v-.1C116.882,269.069,182.093,204.712,116.29,93.778,87.861,45.883,50.594,22.125,7.376,0A220.4,220.4,0,0,0,.064,62.913C3.382,209.784,109.545,239.8,169,447.948Z" transform="translate(194.312 335.161)" fill="#9eb8c8"/>
      </g>
    </g>
  </g>
</svg>
