<svg xmlns="http://www.w3.org/2000/svg" width="112.611" height="117.5" viewBox="0 0 112.611 117.5">
  <g id="Group_146" data-name="Group 146" transform="translate(-1322.016 -2792.975)">
    <path id="Path_3" data-name="Path 3" d="M104.97,41.739l-.014.015,0-.013-.014.024C96.041,52.017,87.615,55.4,80.54,59.255a29.473,29.473,0,0,1,.868,7.928c-.4,18.63-12.9,22.305-20.033,48.732l.005.019.31-.527-.31.527,0,.005c16.954-16.757,27.91-14.281,36.406-28.027,8.627-13.969-.737-24.38,7.162-46.139Z" transform="translate(1364.59 2757.584) rotate(30)" fill="#c1cd90"/>
    <path id="Path_4" data-name="Path 4" d="M55.032,71.016c7.893,14.064.071,22.223,6.339,44.881v0l0,.007c6.271-22.663-1.553-30.822,6.34-44.888,3.358-5.98,7.745-8.992,12.827-11.761-3.311-13.117-15.111-20.29-19.3-42.574v-.045l0,.022,0-.016v.032C57.045,38.929,45.291,46.06,41.968,59.127,47.152,61.932,51.622,64.944,55.032,71.016Z" transform="translate(1364.59 2757.584) rotate(30)" fill="#a8c4c5"/>
    <path id="Path_5" data-name="Path 5" d="M67.713,71.016c-7.893,14.066-.069,22.225-6.34,44.888l0,.011c7.13-26.427,19.635-30.1,20.033-48.732a29.473,29.473,0,0,0-.868-7.928C75.458,62.024,71.071,65.036,67.713,71.016Z" transform="translate(1364.59 2757.584) rotate(30)" fill="#9abfa2"/>
    <path id="Path_6" data-name="Path 6" d="M61.055,115.407l.3.51C54.223,89.529,41.489,85.723,41.091,67.1a29.453,29.453,0,0,1,.877-7.976C34.943,55.325,26.6,51.9,17.8,41.765l-.014-.024,0,.013-.013-.015.019.034c7.9,21.759-1.465,32.17,7.162,46.139,8.5,13.746,19.451,11.27,36.4,28.025l-.005-.02Z" transform="translate(1364.59 2757.584) rotate(30)" fill="#c2cbd4"/>
    <path id="Path_7" data-name="Path 7" d="M61.355,115.917l.01.017.006-.024V115.9C55.1,93.239,62.925,85.08,55.032,71.016c-3.41-6.072-7.88-9.084-13.064-11.889a29.453,29.453,0,0,0-.877,7.976C41.489,85.723,54.223,89.529,61.355,115.917Z" transform="translate(1364.59 2757.584) rotate(30)" fill="#9eb8c8"/>
  </g>
</svg>
